<?xml version="1.0" encoding="UTF-8" standalone="no"?>
<!-- Created with Inkscape (http://www.inkscape.org/) -->

<svg
   version="1.1"
   id="svg1"
   width="1094"
   height="429"
   viewBox="0 0 1094 429"
   sodipodi:docname="Logo_BarricadiX_White.svg"
   inkscape:export-filename="Logo_BarricadiX.png"
   inkscape:export-xdpi="1139.071"
   inkscape:export-ydpi="1139.071"
   inkscape:version="1.4 (86a8ad7, 2024-10-11)"
   xmlns:inkscape="http://www.inkscape.org/namespaces/inkscape"
   xmlns:sodipodi="http://sodipodi.sourceforge.net/DTD/sodipodi-0.dtd"
   xmlns="http://www.w3.org/2000/svg"
   xmlns:svg="http://www.w3.org/2000/svg">
  <defs
     id="defs1" />
  <sodipodi:namedview
     id="namedview1"
     pagecolor="#ffffff"
     bordercolor="#000000"
     borderopacity="0.25"
     inkscape:showpageshadow="2"
     inkscape:pageopacity="0.0"
     inkscape:pagecheckerboard="0"
     inkscape:deskcolor="#d1d1d1"
     showguides="true"
     inkscape:zoom="0.68376491"
     inkscape:cx="491.39696"
     inkscape:cy="206.94247"
     inkscape:window-width="1920"
     inkscape:window-height="1009"
     inkscape:window-x="1912"
     inkscape:window-y="-8"
     inkscape:window-maximized="1"
     inkscape:current-layer="g31"
     showgrid="false" />
  <g
     inkscape:groupmode="layer"
     inkscape:label="Image"
     id="g1">
    <path
       style="fill:#000000"
       id="path11" />
    <path
       style="fill:#000000"
       id="path10" />
    <g
       id="g31">
      <path
         style="fill:#ffffff;fill-opacity:1;fill-rule:evenodd"
         d="m 836.08594,184 v 47.5 47.5 h 14 14 V 231.5 184 h -14 z"
         id="path303" />
      <path
         style="fill:#ffffff;fill-opacity:1;fill-rule:evenodd"
         d="m 447.08594,184 0.002,16.75 c 9.7e-4,9.2125 0.29738,30.5875 0.66016,47.5 l 0.6601,30.75 h 13.33789 13.33985 V 231.5 184 h -14 z"
         id="path302" />
      <path
         id="path301"
         style="fill:#ffffff;fill-opacity:1;fill-rule:evenodd"
         d="m 230.80664,183.25192 c -15.95358,-0.67895 -29.82512,2.2084 -40.4043,8.40821 l -4.25781,2.49414 4.93945,9.84375 4.93946,9.84375 5.30859,-2.87696 c 17.54496,-9.50275 37.37167,-7.30035 42.38867,4.70704 3.00884,7.20116 3.39302,7.02403 -16.38476,7.57617 -21.76124,0.60752 -28.29611,2.28904 -36.08399,9.29101 -6.43038,5.78147 -8.6287,11.74992 -7.92968,21.51953 0.97674,13.65123 10.54313,23.10759 26.22851,25.92383 12.26024,2.20126 25.65126,-0.69201 32.95508,-7.12109 l 4.58008,-4.03125 V 273.91406 279 h 13.07031 13.07031 l -0.36523,-33.75 c -0.40106,-36.95298 -0.49859,-37.62644 -6.76367,-46.73242 -6.73218,-9.78489 -17.66687,-14.51558 -35.29102,-15.26563 z M 232.55273,240 h 12.53321 v 4.85156 c 0,5.99024 -2.93292,10.74058 -8.53906,13.83203 -11.35952,6.26408 -26.46094,1.67786 -26.46094,-8.03711 0,-8.10142 5.36878,-10.64648 22.46679,-10.64648 z" />
      <path
         id="path300"
         style="fill:#ffffff;fill-opacity:1;fill-rule:evenodd"
         d="m 640.30664,183.0195 c -11.3751,0.33911 -23.14481,2.89401 -32.40039,7.57617 -6.44576,3.26075 -6.4346,3.14041 -1.19922,13.67969 l 4.66602,9.39453 6.67968,-3.42969 c 19.21992,-9.86109 39.39446,-5.54065 42.07422,9.00977 l 0.68946,3.75 -14.11524,0.0352 c -29.39276,0.0726 -42.81327,5.87874 -47.14453,20.39648 -5.11403,17.14148 6.467,33.59954 25.75586,36.60156 12.40516,1.93068 26.7151,-1.28389 33.28125,-7.47656 l 3.49219,-3.29297 V 274.13281 279 h 13.58398 13.58203 l -0.39648,-32.25 c -0.36805,-29.9232 -0.55489,-32.731 -2.59375,-38.9043 -2.62341,-7.94316 -8.61444,-15.13306 -15.92383,-19.11132 -7.67533,-4.17744 -18.65615,-6.05395 -30.03125,-5.71485 z M 648.15039,240 h 12.93555 v 4.30078 c 0,5.73238 -4.13251,12.11258 -9.49219,14.6582 -9.07832,4.31182 -21.40353,2.84427 -24.48633,-2.91601 -1.77259,-3.31211 -1.21827,-9.45533 1.07422,-11.91602 3.29614,-3.538 6.14703,-4.12695 19.96875,-4.12695 z" />
      <path
         style="fill:#ffffff;fill-opacity:1;fill-rule:evenodd"
         d="m 432.08594,183 -4.25,0.0254 c -9.10303,0.0524 -19.43195,3.92238 -25.3418,9.49609 l -3.4082,3.21485 V 189.86719 184 h -13.5 -13.5 V 231.5 279 H 386 399.91406 l 0.42969,-26.25 c 0.47614,-28.99834 0.98649,-31.92789 6.50391,-37.44531 4.44553,-4.44554 9.31144,-6.34565 17.98828,-7.02539 l 7.25,-0.56836 v -12.35547 z"
         id="path299" />
      <path
         style="fill:#ffffff;fill-opacity:1;fill-rule:evenodd"
         d="m 357.08594,183 -4.25,0.0254 c -9.10303,0.0524 -19.43195,3.92238 -25.3418,9.49609 l -3.4082,3.21485 V 189.86719 184 h -13.5 -13.5 V 231.5 279 H 311 324.91406 l 0.42969,-26.25 c 0.47614,-28.99834 0.98649,-31.92789 6.50391,-37.44531 4.44553,-4.44554 9.31144,-6.34565 17.98828,-7.02539 l 7.25,-0.56836 v -12.35547 z"
         id="path298" />
      <path
         style="fill:#ffffff;fill-opacity:1;fill-rule:evenodd"
         d="m 545.54492,182.66211 c -20.6385,0.45134 -41.45076,11.65268 -48.58398,30.42578 -11.81171,31.08591 7.11684,62.29315 40.58789,66.91406 19.93381,2.752 38.90678,-4.2591 48.25195,-17.83203 1.76806,-2.56793 3.2306,-4.97203 3.25,-5.3418 0.0195,-0.36975 -4.74711,-3.23798 -10.5918,-6.37304 l -10.62695,-5.69922 -3.85156,4.50391 c -9.22637,10.79394 -26.34209,10.77982 -36.07813,-0.0293 -8.96755,-9.95594 -7.62473,-29.47434 2.60938,-37.91016 10.06869,-8.29947 26.94783,-6.57856 34.17578,3.48438 l 2.89844,4.0332 10.5,-5.58008 c 5.775,-3.06927 10.66677,-5.71367 10.87109,-5.875 0.97432,-0.76935 -5.34983,-9.63306 -9.44336,-13.23633 -9.26557,-8.15588 -21.58565,-11.75518 -33.96875,-11.48437 z"
         id="path297" />
      <path
         id="path295"
         style="fill:#ffffff;fill-opacity:1;fill-rule:evenodd"
         d="m 56.585938,155.71875 -0.257813,61.70898 -0.257813,61.71094 41.257813,-0.36328 c 46.226465,-0.40773 48.299305,-0.69408 59.369145,-8.18359 19.37851,-13.11088 17.05448,-43.51959 -4.11133,-53.80274 l -4.27735,-2.07812 4.11719,-3.14063 c 17.13044,-13.06582 14.13375,-40.20192 -5.54101,-50.17187 -9.36056,-4.74336 -14.63679,-5.28223 -53.798832,-5.48828 z m 28.5,22.28125 h 18.683592 c 16.94384,0 19.08888,0.19499 23.02735,2.10156 11.43153,5.53391 9.59051,20.6531 -2.96876,24.38282 C 120.14846,205.57711 114.0236,206 101.9043,206 H 85.085938 v -14 z m 0,48.77344 20.750002,0.49609 c 23.23271,0.55472 26.7564,1.26456 31.16797,6.28906 6.77039,7.71104 2.8392,19.47131 -7.46485,22.33203 -2.26696,0.6294 -16.79203,0.93363 -24.20312,1.10352 C 97.924849,257.16403 85.085937,257 85.085938,257 v -15.11328 z" />
      <path
         id="path294"
         style="fill:#ffffff;fill-opacity:1;fill-rule:evenodd"
         d="m 783.08594,148 v 22.43164 22.43359 l -5.10547,-3.43554 c -10.39801,-6.99735 -28.03865,-8.53856 -40.87305,-3.57031 -44.60904,17.26828 -37.82773,85.74694 9.31836,94.09765 12.01154,2.12753 26.59536,-1.19252 33.79102,-7.69336 l 3.86914,-3.49609 V 273.88281 279 h 13.5 13.5 V 213.5 148 h -14 z m -23.56641,58.02148 c 15.1536,-0.0561 24.46246,11.19617 23.35742,28.23243 -0.66419,10.23989 -5.13767,17.39353 -13.18359,21.07617 -16.95509,7.7604 -33.53034,-3.89185 -33.58594,-23.61133 -0.0446,-15.78696 8.93478,-25.64367 23.41211,-25.69727 z" />
      <path
         style="fill:#ffffff;fill-opacity:1;fill-rule:evenodd"
         d="m 461.58594,140.54688 c -17.36302,-0.10655 -23.10791,20.90981 -8.63794,29.52364 4.82855,2.87439 13.64121,2.60694 17.78955,-0.49024 13.41455,-10.0154 7.95222,-28.92847 -9.15161,-29.0334 z"
         id="path293" />
      <path
         style="fill:#ffffff;fill-opacity:1;fill-rule:evenodd"
         d="m 850.04688,140.23047 c -1.74748,-0.001 -3.56016,0.23758 -5.4043,0.75391 -13.68833,3.83249 -15.96464,22.01986 -3.53711,28.26367 8.21387,4.12679 20.20425,1.02967 24.1875,-6.24805 6.00603,-10.97348 -3.01381,-22.76112 -15.24609,-22.76953 z"
         id="path292" />
      <path
         style="fill:#ffffff;fill-opacity:1;fill-rule:evenodd"
         d="m 1063.9565,84.851016 -10.3912,15.492644 -10.4699,15.80588 -1.611,27.85046 c -0.8805,25.93164 -2.0934,35.30225 -3.8809,45 -0.2535,1.375 -1.0653,7.60887 -2.4844,14 -1.3921,6.26947 -2.6776,13.05455 -3.2773,15.05273 -1.6733,5.57511 -1.7607,4.7359 -3.6094,11 -2.0971,7.10579 -2.4041,7.15085 -5.1465,13.44727 -5.0997,11.70889 -16.9125,36.81509 -24.68551,46.5 -0.66213,0.825 -2.96488,3.87557 -5.11523,6.7793 -17.77044,23.9963 -46.29939,48.67506 -76.26368,65.96875 C 905.23431,368.55093 878.97002,382 877.47266,382 c -1.76628,0 -25.64806,-12.38552 -35.70118,-18.51562 -5.39731,-3.29114 -10.57231,-6.43943 -11.5,-6.9961 -18.62198,-11.17434 -42.77831,-31.6685 -58.08593,-49.27734 L 766.78516,301 h -15.84961 c -8.71752,0 -15.9668,-0.1543 -15.9668,-0.1543 0,0 9.69262,14.27013 17.12109,22.57422 10.16647,11.36483 31.03504,30.87301 38.9961,36.45313 10.0731,7.0605 21.22138,14.71551 23.48633,16.12695 20.76462,12.93972 25.7636,14.6729 39.01367,21.04883 4.60097,2.21398 8.14734,3.80432 10.11523,4.65039 1.26994,0.546 4.53902,2.22792 7.5,3.29297 8.44155,3.03638 9.91154,2.6947 28.8418,-6.67969 42.71358,-21.15204 68.83996,-38.95218 93.04492,-63.39258 9.88391,-9.98012 13.42841,-13.90906 17.51761,-19.41992 1.6325,-2.2 3.2122,-4.225 3.5117,-4.5 2.391,-2.19555 11.2717,-15.20743 17.2519,-25.2793 12.3673,-20.8288 19.5602,-37.07788 25.3301,-57.2207 0.9453,-3.3 1.9274,-6.43294 2.0254,-7 4.4138,-25.58801 9.8144,-24.51559 8.4935,-127.316421 -0.449,-5.825207 -3.2616,-9.332563 -3.2616,-9.332563 z"
         id="path291"
         sodipodi:nodetypes="ccccsssssssssssccscssssssssssssccc" />
      <path
         style="fill:#ff6600;fill-opacity:1;fill-rule:evenodd"
         d="m 1017.668,75.146484 c -0.9373,-0.111051 -12.5248,20.287956 -26.07034,42.353516 -21.48043,34.99126 -51.87282,76.21205 -51.87282,76.21205 0,0 -0.28508,-0.72627 -13.57054,-17.97767 L 912.50586,156.5 l -16.70508,-0.27344 -16.70312,-0.27539 21.51367,30.08594 c 12.81993,17.92659 21.22667,30.56528 20.80078,31.27344 -0.3931,0.65368 -10.20682,14.24016 -21.80859,30.1914 -11.60177,15.95124 -21.4411,29.56374 -21.86524,30.25 -0.60426,0.97773 2.79699,1.24805 15.7168,1.24805 h 16.48828 l 14.32031,-20.9707 c 7.87661,-11.534 14.54727,-20.96789 14.82227,-20.96289 0.275,0.005 6.98823,9.4437 14.91797,20.97265 L 968.41992,279 h 16.78516 16.78322 L 980.87695,249.75 C 969.26529,233.6625 958.8779,219.29716 957.79492,217.82812 l -1.96875,-2.66992 6.99414,-9.33008 c 18.09258,-24.13533 92.04839,-126.394374 91.53129,-126.492182 -1.0164,-0.192253 -9.3781,-0.80027 -18.961,-1.833985 -8.0151,-0.864587 -16.9722,-2.266569 -17.7226,-2.355469 z"
         id="path290" />
      <path
         style="fill:#ffffff;fill-opacity:1;fill-rule:evenodd"
         d="m 877.77344,37.294922 c -4.06922,-0.195833 -7.59407,1.123079 -13.75977,3.802734 -39.36128,17.106697 -88.57798,28.54866 -160.62109,37.785156 -9.41196,1.206688 -14.24355,3.805366 -15.23438,6.722657 -0.874,14.491071 -0.55485,29.259841 -0.41409,43.847651 l 1.50586,37.95313 25.28711,0.44922 c 0,0 -0.90508,-17.61836 -1.03711,-34.83399 -0.12519,-16.32338 0.51521,-32.28507 0.75586,-32.52343 0.18086,-0.17913 6.63008,-1.041008 14.33008,-1.916019 26.79946,-3.045432 46.72993,-6.126216 60,-9.27539 22.55645,-5.352966 56.55788,-14.998023 63,-17.871094 1.65,-0.735871 8.25334,-3.386438 14.67383,-5.890625 l 11.67187,-4.554688 5.82813,2.427735 c 26.89229,11.203572 54.10312,19.728319 88.77539,26.61914 14.09363,2.80099 20.23911,3.976301 20.23911,3.976301 l 6.30663,-10.160095 6.60813,-10.952078 -2.6784,-0.667439 c 0,0 -74.31021,-16.883633 -108.20982,-29.65372 -8.42442,-3.173505 -12.95812,-5.089323 -17.02734,-5.285156 z"
         id="path1"
         sodipodi:nodetypes="sssscccssssscccsccccss" />
    </g>
  </g>
</svg>
